# xmcd
#
# Track frame offsets: 
#        150
#        17762
#        24502
#        43292
#        66018
#        80033
#        102807
#        120505
#        137635
#        154187
#        166931
#        188697
#
# Disc length: 2666 seconds
#
# Revision: 0
# Processed by: cddbd v1.5.2PL0 Copyright (c) Steve Scherf et al.
# Submitted via: ExactAudioCopy v0.99pb5
#
DISCID=960a680c
DTITLE=Haydamaky - Perverzia
DYEAR=2005
DGENRE=Folk/Rock
TTITLE0=Koxannya
TTITLE1=Chuyesh?
TTITLE2=Nemaye khliba - spivaj!
TTITLE3=Lystopad
TTITLE4=Shidi - Ridi
TTITLE5=Bozhestvenna trompita
TTITLE6=Dolynov, dolynov
TTITLE7=Sumnyy Svyatyy Vechir
TTITLE8=Sim bid
TTITLE9=Na tomu boci
TTITLE10=Pid oblachkom
TTITLE11=Centr ukrayinskoji kultury
EXTD=
EXTT0=
EXTT1=
EXTT2=
EXTT3=
EXTT4=
EXTT5=
EXTT6=
EXTT7=
EXTT8=
EXTT9=
EXTT10=
EXTT11=
PLAYORDER=
